#!OML:ASF H:\LiuWeirdWalks\Patient Classification 1\Patient 1\Session 1\male.ASF
:FULLY-SPECIFIED
:DEGREES
1339
root -0.146382 18.0127 -2.00892 185.325 2.57734 168.324
lowerback 12.187 0.248901 -2.68388
upperback 0.41025 1.92764 11.0576
thorax -6.94197 1.77719 13.4355
lowerneck -18.8404 2.70076 9.73463
upperneck 15.9947 4.29 -14.5119
head 8.63436 1.31125 -6.03816
rclavicle 6.36111e-015 1.27222e-014
rhumerus -46.9009 -22.8902 -36.3118
rradius 30.0742
rwrist -8.72096
rhand -11.9483 -3.97704
rfingers 7.12502
rthumb 14.1068 -33.4782
lclavicle 6.36111e-015 1.27222e-014
lhumerus -38.0163 -10.5336 90.7478
lradius 59.1741
lwrist 9.71213
lhand -10.6307 -5.78274
lfingers 7.12502
lthumb 15.3763 23.6255
rfemur -35.7663 -12.3735 2.954
rtibia 46.4037
rfoot -8.86865 -16.3281
rtoes -7.20546
lfemur -2.63596 5.28245 -37.9452
ltibia 16.879
lfoot -5.80708 11.2902
ltoes -17.0883
1340
root -0.139898 18.0215 -2.13598 185.506 2.62598 168.317
lowerback 12.0783 0.234353 -2.74415
upperback 0.372246 1.88627 11.0364
thorax -6.9119 1.75394 13.4552
lowerneck -18.9324 2.72063 9.7062
upperneck 16.0101 4.31432 -14.491
head 8.6585 1.31861 -6.02383
rclavicle 1.59028e-015 7.95139e-014
rhumerus -46.8638 -22.8326 -36.4867
rradius 30.1205
rwrist -8.71893
rhand -11.8983 -3.91904
rfingers 7.12502
rthumb 14.155 -33.4168
lclavicle 1.59028e-015 7.95139e-014
lhumerus -37.8741 -10.4583 90.5591
lradius 59.5321
lwrist 9.95193
lhand -10.866 -5.83179
lfingers 7.12502
lthumb 15.1496 23.5937
rfemur -35.9123 -12.1974 3.21481
rtibia 43.7613
rfoot -8.71828 -16.522
rtoes -7.49694
lfemur -1.92358 5.25727 -37.9251
ltibia 15.9588
lfoot -5.51814 11.223
ltoes -17.333
1341
root -0.132587 18.0294 -2.26443 185.688 2.66544 168.281
lowerback 11.963 0.222267 -2.83101
upperback 0.322492 1.84123 11.0057
thorax -6.89024 1.72906 13.4812
lowerneck -19.0093 2.73257 9.67692
upperneck 16.0538 4.33394 -14.4717
head 8.6887 1.32433 -6.01132
rclavicle 2.14687e-014 1.30403e-013
rhumerus -46.8357 -22.7364 -36.66
rradius 30.189
rwrist -8.75075
rhand -11.856 -3.90169
rfingers 7.12502
rthumb 14.1958 -33.3966
lclavicle 2.14687e-014 1.30403e-013
lhumerus -37.7624 -10.3948 90.3983
lradius 59.8534
lwrist 10.1582
lhand -11.1395 -5.89582
lfingers 7.12502
lthumb 14.8861 23.5494
rfemur -36.029 -11.9863 3.40979
rtibia 41.1719
rfoot -8.64674 -16.7254
rtoes -7.91199
lfemur -1.15039 5.24247 -37.9328
ltibia 14.9329
lfoot -5.17826 11.1202
ltoes -17.5925
1342
root -0.124037 18.0361 -2.39393 185.867 2.68127 168.246
lowerback 11.8459 0.208247 -2.90841
upperback 0.267259 1.79529 10.9728
thorax -6.87287 1.70371 13.4987
lowerneck -19.0507 2.76086 9.71283
upperneck 16.0389 4.36537 -14.5078
head 8.69738 1.33637 -6.02626
rclavicle -7.15625e-015 -1.78111e-013
rhumerus -46.8246 -22.6366 -36.817
rradius 30.275
rwrist -8.79512
rhand -11.8047 -3.88275
rfingers 7.12502
rthumb 14.2452 -33.3742
lclavicle -7.15625e-015 -1.78111e-013
lhumerus -37.6601 -10.3597 90.2628
lradius 60.1286
lwrist 10.3233
lhand -11.3401 -5.91801
lfingers 7.12502
lthumb 14.6928 23.5414
rfemur -36.117 -11.7201 3.56594
rtibia 38.6821
rfoot -8.69842 -16.9758
rtoes -8.47234
lfemur -0.309118 5.23151 -37.9289
ltibia 13.8006
lfoot -4.79575 10.9772
ltoes -17.8741
1343
root -0.114131 18.0414 -2.52436 186.032 2.67019 168.193
lowerback 11.7291 0.190774 -2.99689
upperback 0.217708 1.74121 10.9334
thorax -6.8472 1.6734 13.5165
lowerneck -19.0561 2.7979 9.78031
upperneck 15.9814 4.40497 -14.576
head 8.68799 1.35312 -6.05547
rclavicle -3.73715e-014 -1.33583e-013
rhumerus -46.8091 -22.5489 -36.9621
rradius 30.3678
rwrist -8.845
rhand -11.7326 -3.87227
rfingers 7.12502
rthumb 14.3147 -33.3588
lclavicle -3.73715e-014 -1.33583e-013
lhumerus -37.5422 -10.3413 90.1465
lradius 60.3463
lwrist 10.4338
lhand -11.5281 -5.95555
lfingers 7.12502
lthumb 14.5117 23.5169
rfemur -36.1795 -11.3952 3.65276
rtibia 36.3473
rfoot -8.91154 -17.2688
rtoes -9.06536
lfemur 0.606563 5.21876 -37.9314
ltibia 12.5688
lfoot -4.36675 10.7958
ltoes -18.1921
1344
root -0.102718 18.0448 -2.65616 186.175 2.63477 168.131
lowerback 11.6247 0.17003 -3.09364
upperback 0.171175 1.68158 10.8918
thorax -6.82389 1.64048 13.5381
lowerneck -19.0544 2.82156 9.83679
upperneck 15.9236 4.4272 -14.6335
head 8.67435 1.36224 -6.08115
rclavicle 1.03368e-014 -2.22639e-014
rhumerus -46.7955 -22.4327 -37.1094
rradius 30.4839
rwrist -8.9501
rhand -11.6524 -3.86598
rfingers 7.12502
rthumb 14.3919 -33.347
lclavicle 1.03368e-014 -2.22639e-014
lhumerus -37.4257 -10.3421 90.0556
lradius 60.5154
lwrist 10.5258
lhand -11.6149 -5.94877
lfingers 7.12502
lthumb 14.428 23.5297
rfemur -36.2162 -11.0027 3.66969
rtibia 34.2148
rfoot -9.27641 -17.6004
rtoes -9.66524
lfemur 1.59813 5.20769 -37.9302
ltibia 11.2557
lfoot -3.89544 10.5785
ltoes -18.5189
1345
root -0.0894872 18.0461 -2.78844 186.302 2.57906 168.06
lowerback 11.5305 0.151762 -3.2001
upperback 0.13084 1.62335 10.8467
thorax -6.79998 1.60807 13.5611
lowerneck -19.0357 2.83767 9.89152
upperneck 15.8176 4.43337 -14.688
head 8.63914 1.3647 -6.10585
rclavicle 2.70347e-014 2.8625e-014
rhumerus -46.7846 -22.3276 -37.249
rradius 30.6112
rwrist -9.06493
rhand -11.59 -3.87105
rfingers 7.12502
rthumb 14.4521 -33.3478
lclavicle 2.70347e-014 2.8625e-014
lhumerus -37.2908 -10.3739 89.9888
lradius 60.623
lwrist 10.5575
lhand -11.6478 -5.92134
lfingers 7.12502
lthumb 14.3964 23.5594
rfemur -36.2507 -10.544 3.62135
rtibia 32.3305
rfoot -9.76772 -17.9685
rtoes -10.2638
lfemur 2.6361 5.05593 -37.9304
ltibia 9.89186
lfoot -3.33916 10.456
ltoes -18.8914
